<?xml version="1.0" standalone="no"?><!DOCTYPE svg PUBLIC "-//W3C//DTD SVG 1.1//EN" "http://www.w3.org/Graphics/SVG/1.1/DTD/svg11.dtd"><svg t="1547453330951" class="icon" style="" viewBox="0 0 1024 1024" version="1.1" xmlns="http://www.w3.org/2000/svg" p-id="1764" xmlns:xlink="http://www.w3.org/1999/xlink" width="200" height="200"><defs><style type="text/css"></style></defs><path d="M849.25 6.695L411.687 140.564c-53.011 15.123-95.98 70.42-95.98 123.431v461.548s-31.705-21.385-102.321-11.382C109.686 728.891 25.6 808.487 25.6 891.983s84.086 134.656 187.786 119.926c103.778-14.651 179.83-91.806 179.83-175.34V442.486c0-37.022 44.505-52.893 44.505-52.893l386.875-121.266s42.81-14.375 42.81 25.246v316.534s-39.423-22.685-110.04-14.1c-103.7 12.564-187.786 90.506-187.786 173.962 0 83.535 84.086 136.39 187.786 123.786 103.779-12.564 187.865-90.466 187.865-174.001V75.304c0-53.012-43.008-83.732-95.98-68.609z" fill="#FF6600" p-id="1765"></path></svg>