<?xml version="1.0" standalone="no"?><!DOCTYPE svg PUBLIC "-//W3C//DTD SVG 1.1//EN" "http://www.w3.org/Graphics/SVG/1.1/DTD/svg11.dtd"><svg t="1547453380144" class="icon" style="" viewBox="0 0 1024 1024" version="1.1" xmlns="http://www.w3.org/2000/svg" p-id="2751" xmlns:xlink="http://www.w3.org/1999/xlink" width="200" height="200"><defs><style type="text/css"></style></defs><path d="M911.57504 925.44512l-41.46176 0 0 0L165.33504 925.44512l-0.00512 0-41.45664 0C78.08 925.44512 40.96 888.42752 40.96 842.76224L40.96 284.60544c0-45.6704 37.12-82.688 82.9184-82.688l41.45664 0 0.00512 0 0 0 134.7328 0 51.81952-82.688c0-11.4176 30.01344-20.67456 41.46688-20.67456l248.74496 0c11.43808 0 41.45664 9.25696 41.45664 20.67456l51.82464 82.688 134.7328 0 41.46176 0c45.79328 0 82.91328 37.02272 82.91328 82.688l0 558.1568C994.48832 888.42752 957.36832 925.44512 911.57504 925.44512L911.57504 925.44512M517.72416 284.60544c-148.82304 0-269.47584 120.32-269.47584 268.73856 0 148.42368 120.6528 268.73856 269.47584 268.73856 148.81792 0 269.47072-120.31488 269.47584-268.72832l0-0.02048C787.19488 404.9152 666.5472 284.60544 517.72416 284.60544L517.72416 284.60544M517.72416 739.39456c-103.04 0-186.56256-83.29728-186.56256-186.05056 0-102.74816 83.52256-186.04544 186.56256-186.04544 103.02976 0 186.56256 83.29728 186.56256 186.04544C704.28672 656.1024 620.75392 739.39456 517.72416 739.39456L517.72416 739.39456M517.72416 739.39456 517.72416 739.39456z" fill="#4CB4E7" p-id="2752"></path></svg>